<svg xmlns="http://www.w3.org/2000/svg" viewBox="0 0 1042 1042"><g transform="translate(126.86 .03)"><path d="M342 0c6.3-.2 11.7.6 17.8 2.1l2.7.6a274 274 0 0 1 54.9 21.5q26.8 13 47.8 34.1l3.7 3.5a43 43 0 0 1 8 10c2 3.2 4.1 6.4 7.7 7.9 4.2.9 8.5 1 12.8 1.1 39.4 2.5 91.7 14.9 119.3 45.2 2.3 2 2.3 2 7.3 3l-2-14c23.7 9.5 37.3 30.4 47.1 53 10.3 24.5 10.3 24.5 9.9 36l1.6.1A65 65 0 0 1 718 222l2 1.7a103 103 0 0 1 29 50.3c-.4 2.3-.4 2.3-1 4l-8-1a163 163 0 0 0 6.9 18 160 160 0 0 1 13.1 59c-2.7 1.4-4.2.7-7.1.1l-2.8-.6-2.1-.5a78.4 78.4 0 0 0 3.9 13.9c5.5 14.8 5.6 30.5 5.1 46.1l-4-1-.9-1.5c-1.1-1.5-1.1-1.5-3.7-2.1l-2.4-.4.4 2.2c4 22.9 4.1 47.1-1.4 69.8l-7-1 .1 1.5c.2 7-.9 13.6-2.2 20.5l-.3 1.8a310 310 0 0 1-12.7 47.4 53 53 0 0 0-1.9 8.8l2.2-.1a59.02 59.02 0 0 1 42.6 16.9c17.8 17.8 22.6 46.1 22.6 70.3a138.05 138.05 0 0 1-39.6 97A82.02 82.02 0 0 1 695 765l-.1 2.7q-.9 14.7-3.9 29.3c-3.3 1.1-4.7.8-8 0l-.3 2.5c-1.564 12.54-4.344 19.898-8.3 31.9l-.6 1.9a28.6 28.6 0 0 1-3.8 7.7l-7-1-.7 3.3c-5.2 23.8-5.2 23.8-14.3 32.7l-2-1v-3l-5 1-1 3.3c-6.1 19.3-14 32.5-30 45.7h-2l-1-6h-5l-1.3 2.7c-6.67 13.281-15.114 24.594-25.1 35.6l-1.4 1.6A44 44 0 0 1 564 964h-3l-1-2c-2.3-.3-2.3-.3-5 0-1.9 2.1-1.9 2.1-3.8 4.9l-2 3-1.1 1.6q-4.7 6-10.1 11.5l-1.8 2c-3.8 4-8 8-13.2 10-2.2-.4-2.2-.4-4-1v-2c-3 .3-4.6.6-6.7 2.8l-1.6 2.3A60 60 0 0 1 488 1017c-2.9.4-2.9.4-5.7.5-4.2.1-6 .6-8.9 3.6-12.3 12.1-33.5 16.8-50.2 18.1-2.2-.2-2.2-.2-4.2-2.2v-4a26 26 0 0 0-8.8 4c-7.2 5-16.8 4.4-25.2 4.3h-1.8c-15.3-.1-32.8-1.3-45.6-10.6-3.2-2.1-4.9-2.1-8.6-1.7l-1.8.6c-3.3.6-6-.5-9.1-1.6l-2-.7A86 86 0 0 1 286 1010l-1.7-1.5-3.3-3.5v-2l-1.8.5c-4.1.8-7 1.1-10.9-.8a87 87 0 0 1-9.9-8.1A117 117 0 0 1 238 970c-2.5-.1-4.6-.1-7.1.6-1.9.4-1.9.4-3.7-.4a123 123 0 0 1-24.6-27.6c-3.2-4.333-6-6.933-8.4-11.8-1.2-1.8-1.2-1.8-4.5-2.9l-2.7.1v2c-5.5-.7-7.4-3-10.8-7.1-6.897-9.379-12.513-13.636-16.7-24.5l-1.3-3.1c-2-4.8-3.5-9.1-4.2-14.3-4.7.6-4.7.6-6.3 2.6l-.7 1.4c-5.6-2.4-8.3-7.1-10.7-12.6-3.9-9.8-5.7-20-7.3-30.4l-5-1-1 4c-1.8-.6-1.8-.6-4-2-2.8-5.6-4-11.2-5.2-17.3l-.5-2.8c-1.3-6.6-1.3-6.6-1.3-8.9h-6c-2.544-8.752-4.252-12.725-5.1-21.8l-.5-4.4q-2-17.4-3.4-34.8l-3.4-.1a86.03 86.03 0 0 1-60.7-24.8C10.3 707 1.3 675.3-.3 645.3c-.5-16.5 2.1-33.1 7.7-48.7l1.5-4.2c6-17.1 18.1-32 34.1-40.4 6.5-3 12.8-4.6 20-5a146 146 0 0 0-4.3-15.8 356 356 0 0 1-15.4-69.6Q41.8 450.3 42 439h-6a101 101 0 0 1-1.2-16.5V408c0-16.4.3-32.8 3.2-49a22 22 0 0 0-10.7 6c-1.3 1-1.3 1-3.3 1-1.8-25.5 6.6-51.6 16.4-74.9q1.8-4.3 2.6-9.1c-4 .9-7.7 1.7-11.3 3.7C29 287 29 287 26 286q2.6-11.9 7.4-23l1.3-3A153 153 0 0 1 59 221l2.3-2.6 4.6-5.1a77 77 0 0 0 5.2-6 70.5 70.5 0 0 1 9.1-8.7L82 197l1.7-1.4C85 194 85 194 86 189H60c7.4-18.6 27.5-31.6 43.6-42.4l7.9-5.3c28.6-19.3 58.1-39 90.5-51.3.4-2.2.4-2.2 0-5q-3-3.1-6.6-5.5l-3.8-2.8-1.8-1.3q-4-3-7.8-6.4v-3c32.3-15.4 70.2-25 106.1-25.2h11.8l3.1-.1a307 307 0 0 1 51.6 3.8L364 46a86 86 0 0 0-10.4-22.7 414 414 0 0 0-10.5-18.2C342 3 342 3 342 0" fill="#141414"/><path d="M263 234c3.6.6 6.6 1.6 9.9 3.3l2.8 1.3 2.9 1.5A256 256 0 0 0 388 265.4h2.4c30.7-.1 58.2-8.3 86.6-19.4l2 2-1.1 1.4-1.3 1.8-1.4 1.9c-1.2 2-1.7 3.6-2.2 5.9 23.1.5 46.2-6.8 67.4-15.5 7.3-3 7.3-3 11.6-2.5-1.3 4.3-3 8-5 12 10.1-.4 20-1 30-3l1 2-2.1 2.8c-1.9 2.9-1.9 2.9-1.7 5.6l.8 1.6c4.4 1.1 8.5 1.2 13 1.2h2.3a97 97 0 0 0 16.9-1.8 48.7 48.7 0 0 1 8.8-.4c1 1 1 1 1.1 3.2l-.1 3v3.2l-.1 6.7-.1 3.2v2.9c.3 3.8 1.2 6.7 3.8 9.5l1.9 1.6 2.2 1.8 4.7 3.8c14.2 11.1 23 22.8 31.2 38.7l1.1 2c1.6 3.1 2.4 4.8 2 8.4l-.7 2-4 1c.3 8.2 2.9 15.5 5.6 23.1l1.4 3.9a198 198 0 0 0 9.1 22.3c1.3 2.7 1.9 4.5 1.7 7.5-.8 2.2-.8 2.2-2.8 4.2-.1 6 1.6 12.1 2.9 17.9l.6 2.5 1.2 5.2 3.7 16.1a933 933 0 0 1 4.2 19.7l.4 2.3a74 74 0 0 1 1 16.3c-3.2 1.1-3.7 1-6.7 0l-2.2-.8-2.4-.8c-33.6-11.1-68-13.8-103.2-13.7h-8.9c-16-.1-31.9.2-47.9 1.7l-2 .2c-27.1 2.6-54.8 7.6-74.7 27.4l-1.4 1.7c-2.4 1.9-4.6 2-7.6 2.3-2.6-.3-2.6-.3-5.2-.9-7.5-1.4-14.9-1.4-22.4-1.4h-7.1c-7.8 0-15.2.3-22.9 1.8-3.5.7-6.9 1.3-10.4.5-2-1.6-3.4-3.1-5-5-23.4-24.6-65.7-27.2-97.7-28q-14.4-.4-28.9-.4h-6.2q-22.5-.3-44.8 1.8l-1.9.1c-19.1 1.9-38 5.7-56.1 12.3-7.1 2.6-7.1 2.6-11.4 2.2-1-4.6-.9-8.5-.1-13.1l.3-2.1 1.2-6.7.4-2.4c2.7-16.4 6.4-32.6 10.2-48.8l.6-2.1q1.1-4.8 2.5-9.6c.9-3.3 1.1-5-.1-8.2-1.6-1.3-1.6-1.3-3-2a18 18 0 0 1 3.3-9.7 135 135 0 0 0 6.9-12.5l1.2-2.3 3.5-7.3 2.4-4.7 4.6-9.3 4-7.9.9-1.7 2.2-4.4c1-2.2 1-2.2 1-4.2l-5-3c1.4-5.5 4.1-9.5 7.4-14l1.7-2.3 4.9-6.7 1.3-1.9a127 127 0 0 1 16.9-19.1l5-4.6c5.7-5.3 5.7-5.3 6.1-8.7q-.4-3-1.3-5.7l1.6-.6a303 303 0 0 0 32.8-13.1c11.8-5.6 23.7-9.9 36.6-12.3l.4-2.2zm136.7 297.7h3.2a43 43 0 0 1 24 5.3c4 4 4.9 7.3 5.6 12.7l.4 2.2.7 4.7 1.9 12.3.4 2.5c4.7 29.2 14.3 67.2 39.3 85.8 24.7 16 54.2 17 82.7 17h3c72.7 0 72.7 0 97.3-22.7 13.6-14.8 19.7-34.1 25.6-53 0-.4 0-.4.8-2.5l.7-2.3c.7-1.7.7-1.7 2.7-2.7a441 441 0 0 1-2.8 60 1789 1789 0 0 1-4.1 41.6l-.4 4.4-.7 6-.4 3.3c-.6 2.9-1.3 3.9-3.6 5.7l-1.6.9c-2.1 1.7-2 3.4-2.4 6q-.4 6-.5 12.2c-.2 4.3-.5 7.9-2.5 11.9l-2.2-1c-2.6-1-4.1-1.1-6.8-1a85 85 0 0 0-2.5 21.3l-.2 6.4-.1 2.8a27.2 27.2 0 0 1-1.2 6.5l-1.7-1a29 29 0 0 0-7.3-2 138 138 0 0 0-7.7 20.6l-1 3-2.3 7.4c-4.2-.8-5.5-2.5-8-6-3 .9-4.7 1.6-6.6 4.2-4.5 9.3-7.5 18.9-10.4 28.8h-4c-1.7-2-1.7-2-3-4l-4 1a635 635 0 0 0-6 17h-3l-4-9h-5l-.8 2-6.2 15c-2-2-2-2-2.2-4.4v-3.1l.2-3.4v-1.8c.3-9.6 0-18.8-2-28.2-.8-3.7-1-6.4 0-10.1l4-1c1.2-10.3-4.8-19.5-11-27.4-8.4-10.3-8.4-10.3-14-12.6l-3.2-.2c-4.3-.5-6.6-3-10-5.5-2.7-2-4.5-1.8-7.8-1.3l-1 4a40 40 0 0 1-12.3-6 33 33 0 0 0-15.7-6l-1 5c-4.8-.7-8.7-2.7-13-4.8-5.4-2.7-10.6-3.1-16.6-3.6-2.7-.3-4.5-.6-7-1.7a18 18 0 0 0-9.4-1c-2 2-2 2-3 4l-4.4-1.3-2.4-.8c-2.2-.8-2.2-.8-4.2-1.8-2-.2-2-.2-4.4-.2l-2.4-.1c-2.2.3-2.2.3-3.6 1.8-2.3 2.2-4.3 1.8-7.4 1.9-4.7.3-7.6.7-11 4a71 71 0 0 0-5 7.3L404 758h-3l-1.4-4.9-.7-2.7c-1-2.4-1-2.4-3-4.4-6.5-.8-11.8 1.6-18 4-3-3.7-3-3.7-3-6a43 43 0 0 0-20 3l-1.4-2.5c-2.5-2.5-2.5-2.5-5.7-2.8-4.1 0-7.3 1.6-11 3.4-6.1 3-6.1 3-9 2.7-1.8-.8-1.8-.8-3.3-2-2.6-1.5-5-1-7.8-.5-4.4 1-8.2 3.3-12.1 5.4-2.6 1.3-2.6 1.3-5.6 1.3l-1-5c-5.3-2-10.1.7-15 2.9-6.4 3.4-12.4 7.9-18.4 12-1.6 1-1.6 1-2.6 1v-6c-4 .4-6.1 1-9.2 3.6a16 16 0 0 1-8.8 3.4c-7.6 1.3-11.2 5.8-15.6 11.8-5.6 8.4-12.5 20.7-11 31.2l.6 2 5 1a130 130 0 0 1-2.2 13l-1 4a34 34 0 0 0-.1 11.9c.7 5.3.7 10.7.9 16q.3 8.2 1.4 16.2l-3 2-2.5-9-.7-2.4-.7-2.5-.6-2.2c-.5-2-.5-2-.5-4-3-.2-5.1-.4-7.7 1.2a61 61 0 0 0-4.3 3.9l-3-1-.1-1.5-.7-6.7-.2-2.3a21 21 0 0 0-4-11.5c-4.7.2-7.1.7-10.4 4q-1.5 1.5-2.6 3l-3-1v-10.2l.2-3v-5.3c-.2-3.1-1-6.2-3.2-8.5-5-.7-7.1 1.3-11 4h-2c-1.4-2.8-1-5.1-1-8.2V806l.2-6v-9c-.2-3-.2-3-1.7-4.8-1.5-1.1-1.5-1.1-3.6-1-3.4 1-5.5 2.7-8.2 5l-1.7.9-3-1v-27l-12 2-1-27-9 1c-1.3-2.7-1.3-5.1-1.5-8.1l-.2-1.8-.4-5.7-.2-4-.7-9.4-2-.7c-2.8-1.8-3.1-3-4-6.3l-.8-10-.2-3-.5-9.5-.4-6.2-1-15.4-.2-5.6q-1.3-21-1.1-42V585c.2-2.1.2-2.1 2.2-4.1a104 104 0 0 1 6.9 19l1.6 5.7.8 2.8c6 21.2 14.5 41.6 34.6 53.2 25 12.5 53.8 12.6 81.2 12.7h3.3c30.5.2 68.3-.7 91.9-23.2 23.8-25.5 31.2-65 35.3-98.5l.5-3.2.3-3q1.5-6.5 6.9-10.6a55 55 0 0 1 26.4-4.2" fill="#fcc89e"/><path d="M397 785h3l1.2 1.9 1.6 2.5 1.6 2.4c1.5 2 2.4 3.1 4.6 4.2 2.8-.3 4.9-.9 7.4-2.2 3.5-1.1 5.2 0 8.6 1.2q3.5.2 7 0l4-6 1.9.7A33 33 0 0 0 455 792l3-3c3.2.3 5.9 1 9 2l4.7.1 2.4-.1h1.9l1-5c5.7.6 10.5 2.1 15.8 4.3 3.9 1.4 7 2 11.2 1.7l1.4-1.1c2.2-1.3 3.9-.9 6.4-.5a93 93 0 0 1 11.2 3.9c4.6 1.1 8.5-.1 13-1.3l6.6 6.6c4.5 4.9 5.1 9.5 5.7 16q.8 8.7 3.5 17.1c1 3.8 1.5 6.6.2 10.3l-4 2c-1.4 3.7-1.2 7.9-1.3 11.8l-.1 2.3-.2 7.1-.1 4.9-.3 11.9-3 1-3-2-6-1a145 145 0 0 0-.9 17.8c0 4.5-.6 8-2.1 12.2-3.9-1.9-3.9-1.9-5-3h-5l-4 12c-4.3 1.1-5.2.8-9-1-2.6 2.2-3.5 4-4.4 7.2l-1.3 5-.7 2.5-1.6 6.3c-1.8.6-1.8.6-4 1l-2.4-2c-2.6-2-2.6-2-5.1-1.9-2.5.9-2.5.9-4 2.9l-1.1 2.6-1.3 2.7-1.1 2.7-1 2.2-2 4.8-5-1v-2l-3.3-.7-1.9-.4c-1.8.1-1.8.1-3.4 1.3a35 35 0 0 0-4.1 7l-1.3 2.7-1 2.1h-3c-2.2-2.5-2.2-2.5-4-5-2.3.1-2.3.1-5 1a34.6 34.6 0 0 0-3.8 7.1l-1 2-2.2 4.9c-4.7-.6-4.7-.6-6.2-2.4l-.9-1.6c-1.7-2.9-1.7-2.9-3.9-3.9-2.4-.1-3.8-.1-6 .9l-2 5-2.4 4.2-1.3 2.1C415 980 415 980 412 981l-2.8-4.9-1.6-2.7c-1.5-2.2-2.3-3.3-4.6-4.4-2.9-.5-5-.6-7.6.9a48 48 0 0 0-8.4 9.1c-2.8-1-3.8-1.7-5.3-4.4l-.9-2.7-1.1-2.8-.7-2.1c-4.1-1-6.2-1.1-10 1-1.1 1.9-1.1 1.9-2 4-1.6 1.8-1.6 1.8-3 3-3-1-3-1-3.9-2.4l-.8-1.7-.9-1.9-1.7-3.9c-2.2-4.8-2.2-4.8-4.7-6.5-3.2-1-4.8-.7-8 .4a76 76 0 0 0-7 8c-1.9-.6-1.9-.6-4-2-1.2-2.7-1.2-2.7-2.2-5.9l-1-3.3-.8-2.8-1-3c-5.1-.3-7-.2-11 3-2.1-.4-2.1-.4-4-1l-.8-2.6-2-6.6c-1.2-2.8-1.2-2.8-2.7-4.2-2.4-.9-4.1-.3-6.5.4l-1.6 1.1c-1.8 1.2-3.2 1-5.4.9l-.4-2.5A181 181 0 0 0 290 919c-4.025-.115-8.05.22-12 1-1.7-3.5-1.7-7.6-2.1-11.4-.4-4-1-6.5-3.9-9.6-5.1.5-8.6 1.5-13 4-1.1-2.2-1.1-3.2-1.1-5.6l.1-2.1v-4.4l.1-2.2v-1.9c-.1-1.8-.1-1.8-1.1-4.8l-3-1-2.4 1.5c-2.6 1.5-2.6 1.5-4.8 1.1l-1.8-.6.2-2.4c.9-10.2.9-20.4.8-30.6l-7-1c.2-7.4 2-14.2 4.2-21.3 1.4-4.7 2.2-9 2.5-13.9.3-1.8.3-1.8 2.3-3.5l3-1.3q9.4-5.8 17.5-13.3c4.9-4.3 4.9-4.3 8.5-4.7l3 4c6.8-.2 12.4-1.6 18.5-4.4 2.4-1 4.2-1.6 6.8-1.4 1.7.8 1.7.8 3.3 2.9 3.3 2.6 5.6 2.4 9.7 2.2a41 41 0 0 0 9.7-2.6 12 12 0 0 1 7-.7c1.6 1.9 1.6 1.9 3 4 6.8 2.3 13 .9 19.7-1.3a65 65 0 0 1 8.3-1.7l3 6c7.2 1.5 13.4.8 19.8-3.1a34 34 0 0 0 8.2-9.9m170-291.2h7.3c67.7-.7 67.7-.7 89 16.5 8.6 8.6 10.4 18.6 10.7 30.3 0 30.3-6 77-28.2 99.8-21.4 18.2-54.2 18-80.6 18H555c-53.3.2-53.3.2-71.2-16.6A79 79 0 0 1 467 614l-.9-1.8c-10-23-19.9-59.1-13-84.1a39.02 39.02 0 0 1 22.1-22.2c16.6-7 35-9.2 52.8-11l3-.1c12-1 24-1 36-1m-342.4 0h3.3c87.2.3 87.2.3 111 22.8 8 8.8 8.5 20.1 8 31.4-2 30.8-9.6 73.4-34 95-27.7 22.5-80.3 17.5-113.6 14.4-16.2-1.9-33-5-45.3-16.4l-1.8-1.7c-21-21.7-26.3-66-26.5-95V541c-.3-10.2 1-19 7.5-27.2 21.2-22 63.6-20 91.4-20m-145 78.4c3.7 2 6 4.3 8.4 7.8.5 3 .5 3 .6 6.6v1.9c.205 3.296.272 6.599.2 9.9q.3 12.7.2 25.6c-1.9.6-1.9.6-4 1a52 52 0 0 1-5.2-4.1 39 39 0 0 0-22.8-11c-2.5 0-4 .8-6 2-1 2.4-1 2.4-1 5 3 4.9 7.4 8.2 11.8 11.7C76 640 89 655.5 91 674l1.4 20 .6 9.5.4 6 .2 2.8.5 12.7.1 2.2C94 729 94 729 92 731c-11.7 2-23.8-3-33.4-9.3L54 718l-2.5-2c-18.4-15.3-27-38.3-29.3-61.7-2-24.7 2.1-52.2 18.3-72 9.7-10.8 25.2-16.7 39.1-10.1m658.2 11.5 4.2 2.3 2 1c11.5 7.6 17 22 20 35 6 29.2.5 60.2-14 86l-.9 1.6a70.02 70.02 0 0 1-40 33.3c-6.5 1.5-6.5 1.5-8.7 0q-.7-.3-1.4-1c-.4-12.5.6-25 1.5-37.6l.6-9.2 1-12.3c.6-9 2.5-16 8.3-23l1.1-1.6c6.4-7.7 13.5-15.4 21.4-21.4 2-1.8 2-1.8 3-4.3 0-2.5 0-2.5-1-4.7-2.4-2.3-3.5-2.7-7-2.8a39 39 0 0 0-16.7 8.7L709 635l-3-1q-.2-12.1.6-24.4l.4-4 .3-6V598c.4-4 1.4-6.6 3.7-10l6-3.9a25.01 25.01 0 0 1 20.8-.3" fill="#fcc89e"/><path d="M552 522c11.4 7.4 14.9 19.1 17.6 31.7 2.7 21.5.5 44.3-12.7 62.1A32 32 0 0 1 538 627c-8.7.6-15.3-2.9-21.8-8.5-12.2-12.8-13.7-31.9-13.6-48.6.4-16.1 4.8-33 16.7-44.6 10.5-8.3 21-9.3 32.7-3.3m-280.8-1c11 6.2 16.2 16.8 19.6 28.7 5 19.3 3.7 42.5-5.8 60.3a36 36 0 0 1-19 16c-8.8.8-14.8 0-21.8-5.4-11.1-9.9-15.3-25-16.4-39.5-1-18.7.8-38 13.2-53.2 8.4-8.4 18.9-12 30.2-7m-18.8-103.1h2c20 0 43.8 2.4 59.8 16q6.7 6.8 7.8 16.1c-.2 4.3-.6 8.4-3.2 11.8-3.8 2.9-9.2 1.8-13.8 1.3q-7-.9-14-2.4c-41-8-41-8-61-6.7l-1.8.3a121 121 0 0 0-45.7 12c-3 1-5.3 1-8.5.8-2-2-2-2-2.2-3.9 1-10.9 7.8-19 15.8-26 18-14.7 42-19.4 64.8-19.4m296.4 1h2.1c10.3 0 20.2.4 30.1 3.3l2 .5c16.2 4.6 32.4 12.5 41.2 27.8 2 4 2 7.2 1.8 11.7-2 2-2 2-3.7 2a58 58 0 0 1-14.9-4c-7.8-2.5-15.3-4.6-23.4-6l-2.2-.4c-19.6-2.8-39.5.8-58.6 4.4l-2.9.6-14.7 2.8-5.4 1-2.6.6c-4.5.8-8 1.2-12.6 0-2-1.6-2.9-2.7-4-5-.8-7-.6-13 3.3-19 14.8-18 43-20.4 64.5-20.3M498 802c2.5 1.6 2.5 1.6 4 4 .1 5.2-1.2 7.7-4.5 11.5a43 43 0 0 1-7.6 5.9l-1.9 1.1c-42.6 25.9-103.3 27.2-150.6 15.7-15.9-4.1-32.9-9.7-44.4-22.2-2-3.5-2.4-6-2-10 1.5-2.5 2.8-2.9 5.6-3.8 4.9-.3 8.1 1.6 12.4 3.8 56.758 24.897 121.722 23.431 177.3-4 4.2-2 7.1-2.8 11.7-2M384.3 629.7q1.4 0 2.7.3c2 2.8 3 4.3 2.8 7.8l-.7 3.2-.5 1.8a307 307 0 0 1-5.5 19.6c-7.9 26.9-7.9 26.9-2 37.6 5.6 6 12.8 7.6 20.7 8 7-.1 13.1-2.2 19.5-4.6l2.3-.8 4.4-1.7c4.4-1.6 7.4-2.3 12-1 2 2 2 2 2.5 5.2-.2 6.3-5.3 10.9-9.6 15A54.02 54.02 0 0 1 395 732l-2.8-.2A49 49 0 0 1 361 716a46.02 46.02 0 0 1-5.7-36.7c3.2-12.4 13.3-48.1 29-49.6M367.4 872.6c2.3.1 3.5.3 5.4 1.4 3.5 1.6 6.7.6 10.4.1 3.1 0 5 .7 7.8 2 2.4 0 2.4 0 5.2-.4q9.2-1 18.4-1.3 5-.2 9.8-1c2.6-.4 2.6-.4 4.4.6 2.3 4 2.5 8.2 1.5 12.6l-1 3.6-.6 1.8a19 19 0 0 1-4.7 9h-3.4c-1.8.2-1.8.2-3.6 1-2.5 3.4-4.2 7.2-6 11-1.8 3-3.2 4.7-6.5 5.8-2.5.2-4.2 0-6.5-.8l-1.7 2c-2.3 2-2.3 2-4.8 2.3-4-.5-5.3-2.7-7.8-5.7A109 109 0 0 1 376 902l-2.9.1c-3 0-3 0-5.8-2a31 31 0 0 1-6.8-20.9c1-4.4 2.4-6 7-6.6" fill="#141414"/><path d="M369 88v5h-2.2c-52 1.2-104.6 10-153.8 27.1a24 24 0 0 1-11 1.9v-5a306 306 0 0 1 48-22l2.3-.8a251 251 0 0 1 39.1-9.7L299 83a530 530 0 0 0-47-8v-5c42.4-7.2 77.4 3.6 117 18m149 34c68.6-1.1 68.6-1.1 91.8 20.9l2.9 2.9 3.2 2.9c10.8 10 18.3 23.4 25.1 36.3l1.7 3.1c2.2 4.2 3.6 7 3.3 11.9-3 .3-4.5.4-6.9-1.4l-2-2A153 153 0 0 0 582 166v-6l3.4-.4 4.4-.5 4.4-.6 2-.2c1.8-.3 1.8-.3 4.8-1.3-12.5-7.7-26-12-39.9-16.4l-6.7-2-25.1-7.9L518 127zM672 233c9.7-.8 19.6 5.8 27 11.7 19.9 17.4 23.8 51.3 27 76.3v5c-2.1.4-2.1.4-5 0a50 50 0 0 1-6.4-7.1 129 129 0 0 0-20.4-20.5q-3.3-2.8-6.9-5.4l-2.5-1.8-2.2-1.5c-1.6-1.7-1.6-1.7-1.8-4.4l.2-2.3c8 .4 15.4 2.7 23 5a72 72 0 0 0-14-34l-1.8-2.4a54 54 0 0 0-7.8-7.3l-1.4-1.2a58.6 58.6 0 0 0-7-5.1zm-569 7c.4 4.5-.7 6.6-3.2 10.3A93 93 0 0 0 92 264l2.7-1.3 3.5-1.7 1.7-.9c3.5-1.6 6.1-2.5 10.1-2.1.3 2.2.3 2.2 0 5a47 47 0 0 1-4.9 5.1 109 109 0 0 0-10.7 11.5q-4.4 5.4-9 10.5-4.2 4.6-8.2 9.7L73 305l-1.4 1.8-4.8 5.8-1.5 1.9c-3.7 4.4-3.7 4.4-7.2 4.9L56 319c1.3-27.6 15.4-53.2 34.2-72.8l1.8-1.8c3.6-3.7 5.6-5.2 11-4.4m157-75c.4 2.2.4 2.2 0 5a40 40 0 0 1-7 5.3l-2 1.4-5 3.3 1 1 3.2-.6A209.5 209.5 0 0 1 279 177v5l-2 .6-24.8 8.2-1.9.7c-32.9 10.8-32.9 10.8-48.8 17.6l-2.9 1.2-2.4 1c-2.5.8-4.6.8-7.2.7-.4-3.3-.2-4.7 1.7-7.4l2.2-2.4 1.3-1.3q6-6.4 12.8-11.9l1.4-1.2c13.4-10.6 34-23.4 51.6-22.8M87.8 329.7l2.2.3c-.2 7.6-2.7 14-5.5 20.9l-3.7 9.7-.7 1.9Q74.6 377 71 392l1.3-1.3c5-4.6 5-4.6 8.7-5.1l2 .4a42 42 0 0 1-4.5 15l-1.2 2.4-3.3 7-2.3 4.9L66 427h-5q-3.1-14.3-4-29l-.1-2.7c-.9-23.4 11-42 24-60.3l1.3-1.7c2.5-3.2 2.5-3.2 5.5-3.6M544 163v5c-37.3 13.1-37.3 13.1-51 14l-2 .1c-15.1.9-30.3-1.6-45-5.1v-5h2a230 230 0 0 0 47.5-5.5l7.1-1.7 1.8-.4c12.3-2.8 27.5-5.4 39.6-1.4m-391-15c.4 2.6.4 4.3-1 6.6l-4.4 5-3.1 3.4-1.4 1.5C142 166 142 166 141 169l2.8-.7 3.8-.8 1.8-.4c4.3-1 8.2-1.2 12.6-1.1v5l-2.3 1.1c-41 19.2-41 19.2-47.7 25.9h-5c1.5-16.7 20.2-33.8 32.5-44.3 7.7-6.1 7.7-6.1 13.5-5.7M396 48c5.3-.8 8.8 1.8 13.2 4.5l2.3 1.4A112.7 112.7 0 0 1 428 66l1.5 1.3 4.9 4.4 1.5 1.4c8 7.3 8 7.3 8.3 11.7L444 87c-3.5.4-4.8.1-7.8-1.8l-3-2.4-3.2-2.5-1.5-1.2Q424 75.8 419 73l1.1 2.7 1.4 3.5.7 1.7c1.4 3.5 2.1 6.3 1.8 10.1h-5l-1-1.6-17.4-28.8L399 58l-1.7-2.7c-1.5-2.6-1.6-4.3-1.3-7.3" fill="#9b9b9b"/></g></svg>
